<mxfile host="app.diagrams.net" modified="2024-05-25T18:56:58.027Z" agent="Mozilla/5.0 (Windows NT 10.0; Win64; x64) AppleWebKit/537.36 (KHTML, like Gecko) Chrome/125.0.0.0 Safari/537.36" etag="mxHOqHbMr-EYPfjTK3qe" version="24.4.8" type="device">
  <diagram name="Pagina-1" id="ZFH7E8T_ifChsrhSADnT">
    <mxGraphModel dx="1434" dy="772" grid="1" gridSize="10" guides="1" tooltips="1" connect="1" arrows="1" fold="1" page="1" pageScale="1" pageWidth="827" pageHeight="1169" math="0" shadow="0">
      <root>
        <mxCell id="0" />
        <mxCell id="1" parent="0" />
        <mxCell id="wr6cxs40YM4ji43gqF2z-3" value="" style="edgeStyle=orthogonalEdgeStyle;rounded=0;orthogonalLoop=1;jettySize=auto;html=1;" edge="1" parent="1" source="wr6cxs40YM4ji43gqF2z-1" target="wr6cxs40YM4ji43gqF2z-2">
          <mxGeometry relative="1" as="geometry" />
        </mxCell>
        <mxCell id="wr6cxs40YM4ji43gqF2z-5" style="edgeStyle=orthogonalEdgeStyle;rounded=0;orthogonalLoop=1;jettySize=auto;html=1;exitX=1;exitY=0.5;exitDx=0;exitDy=0;entryX=0;entryY=0.5;entryDx=0;entryDy=0;" edge="1" parent="1" source="wr6cxs40YM4ji43gqF2z-1" target="wr6cxs40YM4ji43gqF2z-4">
          <mxGeometry relative="1" as="geometry" />
        </mxCell>
        <mxCell id="wr6cxs40YM4ji43gqF2z-7" style="edgeStyle=orthogonalEdgeStyle;rounded=0;orthogonalLoop=1;jettySize=auto;html=1;exitX=1;exitY=0.5;exitDx=0;exitDy=0;entryX=0.5;entryY=0;entryDx=0;entryDy=0;" edge="1" parent="1" source="wr6cxs40YM4ji43gqF2z-1" target="wr6cxs40YM4ji43gqF2z-6">
          <mxGeometry relative="1" as="geometry" />
        </mxCell>
        <mxCell id="wr6cxs40YM4ji43gqF2z-1" value="Motivazione" style="rounded=0;whiteSpace=wrap;html=1;fillColor=#e1d5e7;strokeColor=#9673a6;" vertex="1" parent="1">
          <mxGeometry x="80" y="240" width="160" height="80" as="geometry" />
        </mxCell>
        <mxCell id="wr6cxs40YM4ji43gqF2z-2" value="Benefici derivanti da alta motivazione" style="rounded=0;whiteSpace=wrap;html=1;" vertex="1" parent="1">
          <mxGeometry x="380" y="70" width="160" height="80" as="geometry" />
        </mxCell>
        <mxCell id="wr6cxs40YM4ji43gqF2z-4" value="Problematiche derivanti da bassa motivazione" style="rounded=0;whiteSpace=wrap;html=1;" vertex="1" parent="1">
          <mxGeometry x="600" y="240" width="160" height="80" as="geometry" />
        </mxCell>
        <mxCell id="wr6cxs40YM4ji43gqF2z-6" value="Metodologie per innalzare il livello di motivazione" style="rounded=0;whiteSpace=wrap;html=1;" vertex="1" parent="1">
          <mxGeometry x="380" y="390" width="160" height="80" as="geometry" />
        </mxCell>
      </root>
    </mxGraphModel>
  </diagram>
</mxfile>
